<svg width="321" height="502" viewBox="0 0 321 502" fill="none" xmlns="http://www.w3.org/2000/svg">
    <path fill-rule="evenodd" clip-rule="evenodd"
        d="M103.255 204.269C103.104 203.881 103.027 203.468 103.027 203.051C103.027 203.466 103.104 203.883 103.255 204.269ZM103.027 190.004C103.027 189.729 103.06 189.456 103.127 189.19C103.06 189.456 103.027 189.729 103.027 190.004ZM104.975 181.798C105.018 181.625 105.075 181.456 105.145 181.292C105.075 181.455 105.019 181.623 104.976 181.795L104.975 181.798ZM109.879 170.247C110.007 169.947 110.179 169.667 110.389 169.417C110.18 169.665 110.009 169.944 109.881 170.242L109.879 170.247ZM156.158 123.372C156.525 123.005 156.973 122.728 157.465 122.563C156.974 122.727 156.524 123.006 156.158 123.372ZM159.515 121.88C160.306 121.617 161.167 121.659 161.929 121.996C161.167 121.658 160.306 121.616 159.515 121.88ZM163.2 122.561C163.575 122.728 163.916 122.963 164.206 123.253C163.917 122.964 163.573 122.727 163.2 122.561ZM212.577 174.898C212.698 175.073 212.801 175.259 212.886 175.454C212.801 175.259 212.698 175.073 212.577 174.898ZM216.702 185.314C216.757 185.48 216.8 185.651 216.829 185.823C216.8 185.651 216.757 185.48 216.702 185.314ZM217.411 189.321C217.441 189.502 217.456 189.685 217.456 189.868V189.864C217.456 189.682 217.441 189.5 217.411 189.321ZM215.826 210.161C215.794 210.319 215.751 210.474 215.696 210.626L215.698 210.622C215.752 210.471 215.794 210.317 215.826 210.161ZM212.251 218.793C212.141 219.011 212.008 219.217 211.854 219.406C212.008 219.218 212.142 219.011 212.251 218.793Z"
        fill="#D9D9D9" />
    <path fill-rule="evenodd" clip-rule="evenodd"
        d="M165.612 147.477C165.499 147.365 165.395 147.245 165.3 147.118C165.395 147.245 165.499 147.365 165.612 147.477ZM173.924 233.366C174.086 233.044 174.298 232.749 174.553 232.494C174.298 232.749 174.086 233.044 173.924 233.366ZM172.932 235.35C172.861 235.492 172.8 235.639 172.75 235.79C172.8 235.639 172.861 235.492 172.932 235.35ZM171.914 238.297C171.851 238.488 171.804 238.684 171.776 238.883C171.804 238.684 171.851 238.488 171.914 238.297ZM149.499 240.081C149.613 240.423 149.671 240.781 149.671 241.142C149.671 240.781 149.613 240.423 149.499 240.081ZM147.804 235.894C147.707 235.674 147.586 235.466 147.444 235.272C147.586 235.466 147.707 235.674 147.804 235.894ZM143.785 230.349C143.906 230.47 144.017 230.599 144.118 230.737C144.017 230.599 143.906 230.47 143.785 230.349Z"
        fill="#D9D9D9" />
    <path
        d="M150.007 152.678L134.235 168.114L126.778 175.896C126.604 176.077 126.452 176.276 126.323 176.491L121.689 184.214C121.552 184.442 121.443 184.685 121.364 184.939L119.916 189.573C119.842 189.808 119.795 190.05 119.775 190.295L119.494 193.662C119.478 193.856 119.479 194.05 119.496 194.244L119.805 197.644L120.408 202.163C120.453 202.504 120.551 202.836 120.698 203.148L123.161 208.383L125.969 213.062C126.11 213.297 126.279 213.514 126.473 213.708L131.886 219.121L138.597 225.161L143.785 230.349C143.906 230.47 144.017 230.599 144.118 230.737L147.444 235.272C147.586 235.466 147.707 235.674 147.804 235.894L149 238.584L149.499 240.081C149.613 240.423 149.671 240.781 149.671 241.142V262.074L150.007 284.221L150.678 314.758L151.349 338.919L151.975 350.805C152.004 351.373 152.178 351.924 152.48 352.407L153.366 353.825C153.586 354.176 153.868 354.483 154.199 354.731L156.14 356.188L156.163 356.205C156.176 356.214 156.189 356.223 156.201 356.232C156.344 356.335 156.495 356.425 156.652 356.504L156.653 356.504L157.687 357.022C158.153 357.255 158.667 357.376 159.188 357.376H159.738H161.752H162.647C163.373 357.376 164.079 357.14 164.66 356.705L165.107 356.369L167.291 354.731C167.622 354.483 167.904 354.176 168.124 353.825L168.96 352.487C169.293 351.954 169.47 351.338 169.47 350.709V338.919L169.805 315.094L170.477 284.221L171.148 262.074L171.483 240.933L171.776 238.883C171.804 238.684 171.851 238.488 171.914 238.297L172.75 235.79C172.8 235.639 172.861 235.492 172.932 235.35L173.924 233.366C174.086 233.044 174.298 232.749 174.553 232.494L176.517 230.53L180.544 227.174L186.584 221.805L191.953 216.436L195.438 212.318C195.575 212.156 195.697 211.981 195.801 211.795L198.491 207.012C198.606 206.808 198.7 206.592 198.77 206.368L200.257 201.609C200.314 201.427 200.355 201.241 200.38 201.052L201.013 196.302V192.553C201.013 192.368 200.998 192.184 200.968 192.001L200.396 188.57C200.36 188.356 200.304 188.146 200.228 187.943L198.424 183.132C198.361 182.964 198.284 182.801 198.195 182.645L195.786 178.429C195.692 178.264 195.584 178.107 195.463 177.961L190.946 172.477L187.591 168.785L182.557 164.087L177.188 159.054L171.483 153.349L165.612 147.477C165.499 147.365 165.395 147.245 165.3 147.118L164.671 146.28C164.515 146.072 164.335 145.882 164.135 145.716L163.356 145.066C162.753 144.564 161.993 144.289 161.208 144.289H160.801C160.322 144.289 159.848 144.391 159.412 144.589L156.977 145.696C156.584 145.875 156.23 146.127 155.933 146.44L150.007 152.678Z"
        fill="#FF0000" />
    <path fill-rule="evenodd" clip-rule="evenodd"
        d="M140.226 366.264C140.258 366.818 140.427 367.355 140.718 367.827C140.427 367.355 140.258 366.818 140.226 366.264ZM142.654 370.973C142.856 371.302 143.114 371.593 143.415 371.834C143.114 371.593 142.856 371.302 142.654 370.973ZM147.684 375.249C147.89 375.414 148.114 375.553 148.352 375.665C148.114 375.553 147.89 375.414 147.684 375.249ZM153.361 378.023L153.367 378.025C153.587 378.129 153.818 378.208 154.055 378.261C153.816 378.207 153.583 378.127 153.361 378.023ZM159.047 379.37C159.503 379.471 159.975 379.476 160.433 379.385C159.975 379.476 159.503 379.471 159.047 379.37ZM166.085 378.254C166.327 378.206 166.564 378.131 166.79 378.03C166.564 378.131 166.327 378.206 166.085 378.254ZM172.094 375.672C172.357 375.556 172.604 375.406 172.828 375.226C172.604 375.406 172.357 375.556 172.094 375.672ZM177.14 371.776C177.394 371.573 177.618 371.334 177.803 371.066C177.618 371.334 177.394 371.573 177.14 371.776ZM180.004 367.886C180.357 367.377 180.562 366.78 180.596 366.161C180.562 366.78 180.357 367.377 180.004 367.886Z"
        fill="#D9D9D9" />
    <path
        d="M131.406 269.792H4.32101C1.85299 269.792 0.22935 272.366 1.29281 274.594L108.491 499.09C109.048 500.257 110.226 501 111.519 501H208.637C209.926 501 211.101 500.262 211.66 499.101L319.835 274.604C320.909 272.376 319.286 269.792 316.812 269.792H189.088C187.307 269.792 185.836 271.184 185.738 272.963L180.596 366.161C180.562 366.78 180.357 367.377 180.004 367.886L177.803 371.066C177.618 371.334 177.394 371.573 177.14 371.776L172.828 375.226C172.604 375.406 172.357 375.556 172.094 375.672L166.79 378.03C166.564 378.131 166.327 378.206 166.085 378.254L160.433 379.385C159.975 379.476 159.503 379.471 159.047 379.37L154.062 378.262L154.055 378.261C153.818 378.208 153.587 378.129 153.367 378.025L153.361 378.023L148.352 375.665C148.114 375.553 147.89 375.414 147.684 375.249L143.415 371.834C143.114 371.593 142.856 371.302 142.654 370.973L140.718 367.827C140.427 367.355 140.258 366.818 140.226 366.264L134.756 272.951C134.652 271.177 133.183 269.792 131.406 269.792Z"
        fill="white" />
    <path
        d="M206.383 225.832L204.034 228.181C202.753 229.589 203.763 231.847 205.666 231.831L316.841 230.91C319.307 230.889 320.909 228.305 319.831 226.087L211.327 2.88857C210.766 1.7333 209.594 1 208.309 1H111.518C110.225 1 109.048 1.74212 108.49 2.90801L1.29697 227.069C0.231889 229.296 1.8555 231.872 4.32433 231.872H112.633C115.359 231.872 116.948 228.795 115.369 226.573L110.074 219.121L106.047 211.403L103.258 204.274L103.255 204.269C103.104 203.883 103.027 203.466 103.027 203.051V196.638V190.004C103.027 189.729 103.06 189.456 103.127 189.19L104.975 181.798L104.976 181.795C105.019 181.623 105.075 181.455 105.145 181.292L105.146 181.29L109.879 170.247L109.881 170.242C110.009 169.944 110.18 169.665 110.389 169.417L110.392 169.413L118.799 159.389L130.544 147.98L153.027 126.503L156.158 123.372C156.524 123.006 156.974 122.727 157.465 122.563L157.47 122.562L159.51 121.881L159.515 121.88C160.306 121.616 161.167 121.658 161.929 121.996L161.934 121.998L163.196 122.559L163.2 122.561C163.573 122.727 163.917 122.964 164.206 123.253L175.174 134.221L183.564 142.611L193.631 152.007L198.329 157.04L204.034 163.081L209.067 169.792L212.577 174.898C212.698 175.073 212.801 175.259 212.886 175.454L215.107 180.53L216.702 185.314C216.757 185.48 216.8 185.651 216.829 185.823L217.411 189.317L217.411 189.321C217.441 189.5 217.456 189.682 217.456 189.864V189.868V193.617V198.651L216.785 205.362L215.827 210.156L215.826 210.161C215.794 210.317 215.752 210.471 215.698 210.622L215.696 210.626L215.696 210.626L214.101 215.094L212.255 218.786L212.251 218.793C212.142 219.011 212.008 219.218 211.854 219.406L211.85 219.41L209.067 222.812L206.383 225.832Z"
        fill="white" />
    <path
        d="M204.034 228.181V228.181C202.753 229.589 203.763 231.847 205.666 231.831V231.831M204.034 228.181L206.383 225.832L209.067 222.812L211.85 219.41M204.034 228.181C202.753 229.589 203.763 231.847 205.666 231.831M108.49 2.90801L1.29697 227.069M108.49 2.90801C109.048 1.74212 110.225 1 111.518 1M108.49 2.90801V2.90801C109.048 1.74213 110.225 1 111.518 1V1M1.29697 227.069C0.231889 229.296 1.8555 231.872 4.32433 231.872M1.29697 227.069V227.069C0.231891 229.296 1.8555 231.872 4.32433 231.872V231.872M4.32433 231.872H112.633M112.633 231.872C115.359 231.872 116.948 228.795 115.369 226.573M112.633 231.872V231.872C115.359 231.872 116.948 228.795 115.369 226.573V226.573M115.369 226.573L110.074 219.121L106.047 211.403L103.258 204.274M103.258 204.274C103.257 204.272 103.256 204.271 103.255 204.269M103.258 204.274L103.255 204.269M103.027 203.051V196.638V190.004M103.027 203.051C103.027 203.468 103.104 203.881 103.255 204.269M103.027 203.051V203.051C103.027 203.466 103.104 203.883 103.255 204.269V204.269M103.027 190.004C103.027 189.729 103.06 189.456 103.127 189.19M103.027 190.004V190.004C103.027 189.729 103.06 189.456 103.127 189.19V189.19M103.127 189.19L104.975 181.798M104.975 181.798C105.018 181.625 105.075 181.456 105.145 181.292M104.975 181.798L104.976 181.795C105.019 181.623 105.075 181.455 105.145 181.292V181.292M109.879 170.247L105.146 181.29L105.145 181.292M109.879 170.247C110.007 169.947 110.179 169.667 110.389 169.417M109.879 170.247L109.881 170.242C110.009 169.944 110.18 169.665 110.389 169.417V169.417M110.392 169.413L118.799 159.389L130.544 147.98L153.027 126.503L156.158 123.372M110.392 169.413L110.389 169.417M110.392 169.413C110.391 169.414 110.39 169.415 110.389 169.417M156.158 123.372C156.525 123.005 156.973 122.728 157.465 122.563M156.158 123.372V123.372C156.524 123.006 156.974 122.727 157.465 122.563V122.563M157.47 122.562L159.51 121.881M157.47 122.562C157.468 122.562 157.467 122.563 157.465 122.563M157.47 122.562L157.465 122.563M159.51 121.881L159.515 121.88M159.51 121.881C159.512 121.881 159.513 121.88 159.515 121.88M161.934 121.998L163.196 122.559M161.934 121.998L161.929 121.996M161.934 121.998C161.933 121.998 161.931 121.997 161.929 121.996M163.196 122.559C163.197 122.56 163.198 122.56 163.2 122.561M163.196 122.559L163.2 122.561M164.206 123.253L175.174 134.221L183.564 142.611L193.631 152.007L198.329 157.04L204.034 163.081L209.067 169.792L212.577 174.898M164.206 123.253C163.916 122.963 163.575 122.728 163.2 122.561M164.206 123.253V123.253C163.917 122.964 163.573 122.727 163.2 122.561V122.561M212.577 174.898C212.698 175.073 212.801 175.259 212.886 175.454M212.577 174.898V174.898C212.698 175.073 212.801 175.259 212.886 175.454V175.454M212.886 175.454L215.107 180.53L216.702 185.314M216.702 185.314C216.757 185.48 216.8 185.651 216.829 185.823M216.702 185.314V185.314C216.757 185.48 216.8 185.651 216.829 185.823V185.823M216.829 185.823L217.411 189.317M217.411 189.317C217.411 189.318 217.411 189.32 217.411 189.321M217.411 189.317L217.411 189.321M217.456 189.868V193.617V198.651L216.785 205.362L215.827 210.156M217.456 189.868C217.456 189.685 217.441 189.502 217.411 189.321M217.456 189.868V189.864C217.456 189.682 217.441 189.5 217.411 189.321V189.321M215.827 210.156C215.826 210.158 215.826 210.159 215.826 210.161M215.827 210.156L215.826 210.161M212.255 218.786L214.101 215.094L215.696 210.627L215.696 210.626M212.255 218.786C212.253 218.788 212.252 218.791 212.251 218.793M212.255 218.786L212.251 218.793M211.85 219.41C211.851 219.409 211.853 219.408 211.854 219.406M211.85 219.41L211.854 219.406M205.666 231.831L316.841 230.91M316.841 230.91C319.307 230.889 320.909 228.305 319.831 226.087M316.841 230.91V230.91C319.307 230.889 320.909 228.305 319.831 226.087V226.087M319.831 226.087L211.327 2.88857M211.327 2.88857C210.766 1.7333 209.594 1 208.309 1M211.327 2.88857V2.88857C210.766 1.7333 209.594 1 208.309 1V1M208.309 1H111.518M131.406 269.792H4.32101M131.406 269.792C133.183 269.792 134.652 271.177 134.756 272.951M131.406 269.792V269.792C133.183 269.792 134.652 271.177 134.756 272.951V272.951M4.32101 269.792C1.85299 269.792 0.22935 272.366 1.29282 274.594M4.32101 269.792V269.792C1.853 269.792 0.229352 272.366 1.29282 274.594V274.594M1.29282 274.594L108.491 499.09M108.491 499.09C109.048 500.257 110.226 501 111.519 501M108.491 499.09V499.09C109.048 500.257 110.226 501 111.519 501V501M111.519 501H208.637M208.637 501C209.926 501 211.101 500.262 211.66 499.101M208.637 501V501C209.926 501 211.101 500.262 211.66 499.101V499.101M211.66 499.101L319.835 274.604M319.835 274.604C320.909 272.376 319.286 269.792 316.812 269.792M319.835 274.604V274.604C320.909 272.376 319.286 269.792 316.812 269.792V269.792M316.812 269.792H189.088M189.088 269.792C187.307 269.792 185.836 271.184 185.738 272.963M189.088 269.792V269.792C187.307 269.792 185.836 271.184 185.738 272.963V272.963M185.738 272.963L180.596 366.161M180.596 366.161C180.562 366.78 180.357 367.377 180.004 367.886M180.596 366.161V366.161C180.562 366.78 180.357 367.377 180.004 367.886V367.886M180.004 367.886L177.803 371.066M177.803 371.066C177.618 371.334 177.394 371.573 177.14 371.776M177.803 371.066V371.066C177.618 371.334 177.394 371.573 177.14 371.776V371.776M177.14 371.776L172.828 375.226M172.828 375.226C172.603 375.406 172.357 375.556 172.094 375.672M172.828 375.226V375.226C172.604 375.406 172.357 375.556 172.094 375.672V375.672M172.094 375.672L166.79 378.03M166.79 378.03C166.564 378.131 166.327 378.206 166.085 378.254M166.79 378.03V378.03C166.564 378.131 166.327 378.206 166.085 378.254V378.254M166.085 378.254L160.433 379.385M160.433 379.385C159.975 379.476 159.503 379.471 159.047 379.37M160.433 379.385V379.385C159.975 379.476 159.503 379.471 159.047 379.37V379.37M159.047 379.37L154.062 378.262M154.062 378.262L154.055 378.261M154.062 378.262C154.06 378.262 154.057 378.261 154.055 378.261M153.361 378.023L148.352 375.665M153.361 378.023L153.367 378.025C153.587 378.129 153.818 378.208 154.055 378.261V378.261M153.361 378.023C153.583 378.127 153.816 378.207 154.055 378.261M148.352 375.665C148.114 375.553 147.89 375.414 147.684 375.249M148.352 375.665V375.665C148.114 375.553 147.89 375.414 147.684 375.249V375.249M147.684 375.249L143.415 371.834M143.415 371.834C143.114 371.593 142.856 371.302 142.654 370.973M143.415 371.834V371.834C143.114 371.593 142.856 371.302 142.654 370.973V370.973M142.654 370.973L140.718 367.827M140.718 367.827C140.427 367.355 140.258 366.818 140.226 366.264M140.718 367.827V367.827C140.427 367.355 140.258 366.818 140.226 366.264V366.264M140.226 366.264L134.756 272.951M156.977 145.696L159.412 144.589M156.977 145.696C156.584 145.875 156.23 146.127 155.933 146.44M156.977 145.696V145.696C156.584 145.875 156.23 146.127 155.933 146.44V146.44M159.412 144.589C159.848 144.391 160.322 144.289 160.801 144.289M159.412 144.589V144.589C159.848 144.391 160.322 144.289 160.801 144.289V144.289M160.801 144.289H161.208M161.208 144.289C161.993 144.289 162.753 144.564 163.356 145.066M161.208 144.289V144.289C161.993 144.289 162.753 144.564 163.356 145.066V145.066M163.356 145.066L164.135 145.716M164.135 145.716C164.335 145.882 164.515 146.072 164.671 146.28M164.135 145.716V145.716C164.335 145.882 164.515 146.072 164.671 146.28V146.28M164.671 146.28L165.3 147.118M165.3 147.118C165.395 147.245 165.499 147.365 165.612 147.477M165.3 147.118V147.118C165.395 147.245 165.499 147.365 165.612 147.477V147.477M165.612 147.477L171.483 153.349L177.188 159.054L182.557 164.087L187.591 168.785L190.946 172.477L195.463 177.961M195.463 177.961C195.584 178.107 195.692 178.264 195.786 178.429M195.463 177.961V177.961C195.584 178.107 195.692 178.264 195.786 178.429V178.429M195.786 178.429L198.195 182.645M198.195 182.645C198.284 182.801 198.361 182.964 198.424 183.132M198.195 182.645V182.645C198.284 182.801 198.361 182.964 198.424 183.132V183.132M198.424 183.132L200.228 187.943M200.228 187.943C200.304 188.146 200.36 188.356 200.396 188.57M200.228 187.943V187.943C200.304 188.146 200.36 188.356 200.396 188.57V188.57M200.396 188.57L200.968 192.001M200.968 192.001C200.998 192.184 201.013 192.368 201.013 192.553M200.968 192.001V192.001C200.998 192.184 201.013 192.368 201.013 192.553V192.553M201.013 192.553V196.302L200.38 201.052M200.38 201.052C200.355 201.241 200.314 201.427 200.257 201.609M200.38 201.052V201.052C200.355 201.241 200.314 201.427 200.257 201.609V201.609M200.257 201.609L198.77 206.368M198.77 206.368C198.7 206.592 198.606 206.808 198.491 207.012M198.77 206.368V206.368C198.7 206.592 198.606 206.808 198.491 207.012V207.012M198.491 207.012L195.801 211.795M195.801 211.795C195.697 211.981 195.575 212.156 195.438 212.318M195.801 211.795V211.795C195.697 211.981 195.575 212.156 195.438 212.318V212.318M195.438 212.318L191.953 216.436L186.584 221.805L180.544 227.175L176.517 230.53L174.553 232.494M174.553 232.494C174.298 232.749 174.086 233.044 173.924 233.366M174.553 232.494V232.494C174.298 232.749 174.086 233.044 173.924 233.366V233.366M173.924 233.366L172.932 235.35M172.932 235.35C172.861 235.492 172.8 235.639 172.75 235.79M172.932 235.35V235.35C172.861 235.492 172.8 235.639 172.75 235.79V235.79M172.75 235.79L171.914 238.297M171.914 238.297C171.851 238.488 171.804 238.684 171.776 238.883M171.914 238.297V238.297C171.851 238.488 171.804 238.684 171.776 238.883V238.883M171.776 238.883L171.483 240.933L171.148 262.074L170.477 284.221L169.805 315.094L169.47 338.919V350.709M169.47 350.709C169.47 351.338 169.293 351.954 168.96 352.487M169.47 350.709V350.709C169.47 351.338 169.293 351.954 168.96 352.487V352.487M168.96 352.487L168.124 353.825M168.124 353.825C167.904 354.176 167.622 354.483 167.291 354.731M168.124 353.825V353.825C167.904 354.176 167.622 354.483 167.291 354.731V354.731M167.291 354.731L165.107 356.369L164.66 356.705M164.66 356.705C164.079 357.14 163.373 357.376 162.647 357.376M164.66 356.705V356.705C164.079 357.14 163.373 357.376 162.647 357.376V357.376M162.647 357.376H161.752H159.738H159.188M159.188 357.376C158.667 357.376 158.153 357.255 157.687 357.022M159.188 357.376V357.376C158.667 357.376 158.153 357.255 157.687 357.022V357.022M157.687 357.022L156.653 356.504L156.652 356.504M156.14 356.188L154.199 354.731M156.14 356.188L156.163 356.205M156.14 356.188C156.148 356.193 156.156 356.199 156.163 356.205M154.199 354.731C153.868 354.483 153.586 354.176 153.366 353.825M154.199 354.731V354.731C153.868 354.483 153.586 354.176 153.366 353.825V353.825M153.366 353.825L152.48 352.407M152.48 352.407C152.178 351.924 152.004 351.373 151.975 350.805M152.48 352.407V352.407C152.178 351.924 152.004 351.373 151.975 350.805V350.805M151.975 350.805L151.349 338.919L150.678 314.758L150.007 284.221L149.671 262.074V241.142M149.671 241.142C149.671 240.781 149.613 240.423 149.499 240.081M149.671 241.142V241.142C149.671 240.781 149.613 240.423 149.499 240.081V240.081M149.499 240.081L149 238.584L147.804 235.894M147.804 235.894C147.707 235.674 147.586 235.466 147.444 235.272M147.804 235.894V235.894C147.707 235.674 147.586 235.466 147.444 235.272V235.272M147.444 235.272L144.118 230.737M144.118 230.737C144.017 230.599 143.906 230.47 143.785 230.349M144.118 230.737V230.737C144.017 230.599 143.906 230.47 143.785 230.349V230.349M143.785 230.349L138.597 225.161L131.886 219.121L126.473 213.708M126.473 213.708C126.279 213.514 126.11 213.297 125.969 213.062M126.473 213.708V213.708C126.279 213.514 126.11 213.297 125.969 213.062V213.062M125.969 213.062L123.161 208.383L120.698 203.148M120.698 203.148C120.551 202.836 120.453 202.504 120.408 202.163M120.698 203.148V203.148C120.551 202.836 120.453 202.504 120.408 202.163V202.163M120.408 202.163L119.805 197.644L119.496 194.244M119.496 194.244C119.479 194.05 119.478 193.856 119.494 193.662M119.496 194.244V194.244C119.479 194.05 119.478 193.856 119.494 193.662V193.662M119.494 193.662L119.775 190.295M119.775 190.295C119.795 190.05 119.842 189.808 119.916 189.573M119.775 190.295V190.295C119.795 190.05 119.842 189.808 119.916 189.573V189.573M119.916 189.573L121.364 184.939M121.364 184.939C121.443 184.685 121.552 184.442 121.689 184.214M121.364 184.939V184.939C121.443 184.685 121.552 184.442 121.689 184.214V184.214M121.689 184.214L126.323 176.491M126.323 176.491C126.452 176.276 126.604 176.077 126.778 175.896M126.323 176.491V176.491C126.452 176.276 126.604 176.077 126.778 175.896V175.896M126.778 175.896L134.235 168.114L150.007 152.678L155.933 146.44M159.515 121.88C160.306 121.617 161.167 121.659 161.929 121.996M159.515 121.88V121.88C160.306 121.616 161.167 121.658 161.929 121.996V121.996M215.826 210.161V210.161C215.794 210.317 215.752 210.471 215.698 210.622L215.696 210.626M215.826 210.161C215.794 210.319 215.751 210.474 215.696 210.626M212.251 218.793C212.141 219.011 212.008 219.217 211.854 219.406M212.251 218.793V218.793C212.142 219.011 212.008 219.218 211.854 219.406V219.406M156.652 356.504L156.628 356.492C156.465 356.41 156.309 356.314 156.163 356.205V356.205M156.652 356.504C156.495 356.425 156.344 356.334 156.201 356.232C156.189 356.223 156.176 356.214 156.163 356.205"
        stroke="white" />
</svg>